<svg xmlns="http://www.w3.org/2000/svg" version="1.0" width="48.000000pt" height="48.000000pt" viewBox="0 0 48.000000 48.000000" preserveAspectRatio="xMidYMid meet">
<metadata>
Created by potrace 1.16, written by Peter Selinger 2001-2019
</metadata>
<g transform="translate(0.000000,48.000000) scale(0.100000,-0.100000)" fill="#000000" stroke="none">
<path d="M71 383 c0 -27 6 -104 12 -172 l12 -125 60 -18 c33 -10 71 -18 85 -18 14 0 52 8 85 18 l60 18 12 125 c6 68 12 145 12 172 l1 47 -170 0 -170 0 1 -47z m295 -70 c-4 -49 -9 -113 -12 -144 l-6 -55 -44 -12 c-59 -16 -64 -15 -64 6 0 13 -12 22 -40 31 -22 6 -40 18 -40 26 0 7 -3 20 -6 29 -5 12 0 16 19 16 14 0 27 -7 31 -15 9 -25 36 -18 36 10 0 23 -4 25 -45 25 l-45 0 0 60 0 60 45 0 c41 0 45 2 45 25 0 24 2 25 66 25 l67 0 -7 -87z"/>
</g>
</svg>